# xmcd
#
# Track frame offsets: 
#        150
#        42461
#        67315
#        97209
#        140035
#        166260
#        190638
#        218593
#
# Disc length: 3306 seconds
#
# Revision: 1
# Processed by: cddbd v1.5.2PL0 Copyright (c) Steve Scherf et al.
# Submitted via: ExactAudioCopy v0.99pb5
#
DISCID=7a0ce808
DTITLE=Uli Geissendoerfer - The Extension
DYEAR=2004
DGENRE=Gema
TTITLE0=The Extension
TTITLE1=Wedding Song (Sextet)
TTITLE2=Mambo Derivado (For Chucho)
TTITLE3=New World
TTITLE4=No Sweat
TTITLE5=Waiting For Galina
TTITLE6=Wedding Song (Quartet)
TTITLE7=Nobody Knows (The Trouble I've Seen)
EXTD=YEAR: 2004
EXTT0=
EXTT1=
EXTT2=
EXTT3=
EXTT4=
EXTT5=
EXTT6=
EXTT7=
PLAYORDER=
